<svg width="31" height="37" viewBox="0 0 31 37" fill="none" xmlns="http://www.w3.org/2000/svg">
<path fill-rule="evenodd" clip-rule="evenodd" d="M20.5196 5.92448C21.7007 4.38816 22.599 2.21747 22.2732 0C20.3431 0.134621 18.0841 1.37873 16.7653 3.00072C15.5684 4.47349 14.5805 6.65743 14.9653 8.77968C17.0728 8.84573 19.2534 7.57077 20.5196 5.92448Z" fill="white"/>
<path fill-rule="evenodd" clip-rule="evenodd" d="M30.9591 26.7713C30.113 28.6709 29.708 29.5188 28.6187 31.1977C27.0983 33.5419 24.9562 36.4608 22.3018 36.4852C19.9423 36.5074 19.3367 34.9301 16.1354 34.9479C12.9341 34.9655 12.2655 36.5129 9.90601 36.4911C7.25128 36.4665 5.2212 33.83 3.70093 31.4867C-0.549886 24.9325 -0.993969 17.2407 1.62716 13.1518C3.49056 10.2456 6.42898 8.54451 9.19296 8.54451C12.0066 8.54451 13.7755 10.1076 16.1018 10.1076C18.3583 10.1076 19.7341 8.54199 22.9867 8.54199C25.4456 8.54199 28.051 9.89775 29.9076 12.2435C23.8253 15.6195 24.813 24.4188 30.9591 26.7713Z" fill="white"/>
</svg>
